<?xml version="1.0" encoding="utf-8"?>
<!-- Generator: Adobe Illustrator 26.4.1, SVG Export Plug-In . SVG Version: 6.00 Build 0)  -->
<svg version="1.1" id="Layer_1" xmlns="http://www.w3.org/2000/svg" xmlns:xlink="http://www.w3.org/1999/xlink" x="0px" y="0px"
	 viewBox="0 0 400 400" style="enable-background:new 0 0 400 400;" xml:space="preserve">
<style type="text/css">
	.st0{clip-path:url(#SVGID_00000063602216187337972790000008886860721007117735_);fill:#FFFFFF;}
</style>
<g>
	<defs>
		<rect id="SVGID_1_" width="400" height="400"/>
	</defs>
	<clipPath id="SVGID_00000054973352030822924090000013859381122590399921_">
		<use xlink:href="#SVGID_1_"  style="overflow:visible;"/>
	</clipPath>
	<path id="Calque_1" style="clip-path:url(#SVGID_00000054973352030822924090000013859381122590399921_);fill:#FFFFFF;" d="
		M238.4,183.7c8.9,0,16,7.2,16,16s-7.2,16-16,16s-16-7.2-16-16C222.5,190.9,229.6,183.8,238.4,183.7z M155.7,183.7
		c8.9,0,16,7.2,16,16s-7.2,16-16,16s-16-7.2-16-16C139.8,190.9,146.9,183.8,155.7,183.7L155.7,183.7z M322,170.6H78L129,35h142
		L322,170.6z M395.3,365H250.9l-8.3-24.6h-84.4l-9,24.6H4.7l49.7-135.3h289.9L395.3,365z"/>
</g>
</svg>
