<?xml version="1.0" encoding="utf-8"?>
<!-- Generator: Adobe Illustrator 26.4.1, SVG Export Plug-In . SVG Version: 6.00 Build 0)  -->
<svg version="1.1" id="Layer_1" xmlns="http://www.w3.org/2000/svg" xmlns:xlink="http://www.w3.org/1999/xlink" x="0px" y="0px"
	 viewBox="0 0 400 400" style="enable-background:new 0 0 400 400;" xml:space="preserve">
<style type="text/css">
	.st0{fill:none;}
	.st1{fill:#FFFFFF;}
</style>
<rect class="st0" width="400" height="400"/>
<path id="Tracé_23" class="st1" d="M180.5,36.2c54.8-6.6,109.1,15,144.4,57.4c19.8,23.6,32.5,52.2,36.9,82.7
	c1.6,11.1,2,22.2,1.4,33.4c-1-13.8-4-27.5-8.8-40.5c-9.5-25.6-26.1-48.1-47.7-64.7c-40.2-30.9-93.8-38.2-140.8-19
	c-44.9,18.5-77.6,58.2-87,105.9c-12.5,62.3,16.8,125.5,72.5,156.1c18.4,10,38.7,15.9,59.6,17.2c-84.9,5.4-159.9-55-172.7-139.2
	c-4.4-28.4-1.4-57.4,8.7-84.2c10.8-28.7,29.4-53.7,53.7-72.5C124,50.9,151.5,39.7,180.5,36.2z"/>
<path id="Tracé_24" class="st1" d="M188.7,119.3c30.5-11.2,64.3-9,93,6.3c-27.4,10.1-41.4,40.5-31.3,67.9
	c6.1,16.7,20.2,29.1,37.5,33.2c14.8,3.4,30.4,0.1,42.6-9c4.1-3,7.7-6.7,10.7-10.7c3,16.3,2.5,33-1.4,49.1
	c-6,24.5-19.8,46.4-39.4,62.4c-35.1,28.7-83.8,33.9-124.1,13.3c-24.5-12.6-43.7-33.5-54.2-58.9c-7.2-17.5-10-36.5-8.3-55.3
	C117.8,173.1,147,134.9,188.7,119.3L188.7,119.3z"/>
</svg>
