<?xml version="1.0" encoding="utf-8"?>
<!-- Generator: Adobe Illustrator 26.0.2, SVG Export Plug-In . SVG Version: 6.00 Build 0)  -->
<svg version="1.1" id="Calque_1" xmlns="http://www.w3.org/2000/svg" xmlns:xlink="http://www.w3.org/1999/xlink" x="0px" y="0px"
	 viewBox="0 0 12 12" style="enable-background:new 0 0 12 12;" xml:space="preserve">
<style type="text/css">
	.st0{fill:#FFFFFF;}
</style>
<path class="st0" d="M5.5,1.5c2.3,0,4.3,1.5,5,3.6L9.3,5.5c-0.5-1.6-2-2.8-3.8-2.8c-1,0-1.9,0.4-2.6,0.9L4.3,5H0.8V1.5l1.3,1.3
	C3,2,4.2,1.5,5.5,1.5 M5,6v5H4V7H3V6H5 M6,6h3v1H7v1h1c0.6,0,1,0.4,1,1v1c0,0.6-0.4,1-1,1H6v-1h2V9H6V6z"/>
</svg>
