<?xml version="1.0" encoding="utf-8"?>
<!-- Generator: Adobe Illustrator 26.0.2, SVG Export Plug-In . SVG Version: 6.00 Build 0)  -->
<svg version="1.1" id="Calque_1" xmlns="http://www.w3.org/2000/svg" xmlns:xlink="http://www.w3.org/1999/xlink" x="0px" y="0px"
	 viewBox="0 0 12 12" style="enable-background:new 0 0 12 12;" xml:space="preserve">
<style type="text/css">
	.st0{fill:#FFFFFF;}
</style>
<path class="st0" d="M5.8,1.5c1.3,0,2.5,0.5,3.4,1.3l1.3-1.3V5H7l1.3-1.3C7.6,3.1,6.7,2.8,5.8,2.8C4,2.8,2.5,3.9,2,5.5L0.8,5.1
	C1.5,3,3.4,1.5,5.8,1.5 M5,6v5H4V7H3V6H5 M6,6h3v1H7v1h1c0.6,0,1,0.4,1,1v1c0,0.6-0.4,1-1,1H6v-1h2V9H6V6z"/>
</svg>
