<?xml version="1.0" encoding="utf-8"?>
<!-- Generator: Adobe Illustrator 26.0.2, SVG Export Plug-In . SVG Version: 6.00 Build 0)  -->
<svg version="1.1" id="Layer_1" xmlns="http://www.w3.org/2000/svg" xmlns:xlink="http://www.w3.org/1999/xlink" x="0px" y="0px"
	 viewBox="0 0 400 400" style="enable-background:new 0 0 400 400;" xml:space="preserve">
<style type="text/css">
	.st0{fill:none;}
	.st1{fill:#FDFCFC;}
	.st2{fill:#CECECE;}
	.st3{fill:#575757;}
</style>
<rect x="61.4" y="38.6" class="st0" width="316.7" height="316.7"/>
<path id="Tracé_1" class="st1" d="M96.6,77.6c3.2-4.9,7.4-10.1,13.4-11.2c6.3-1,12,2.5,16.7,6.3c12.8,10.7,22.8,24.5,30.3,39.3
	c0.8,1.4,1.6,2.9,3,3.7c1.6,0.9,3.4,0.6,5.1,0.5c16.6-1.5,33.3-1.5,50,0.1c1.8,0.2,3.9,0.2,5.4-1c1.6-1.2,2.4-3.1,3.3-4.8
	c7.6-14.6,17.5-28.2,30.4-38.5c4.2-3.2,9.3-6.3,14.8-5.8c5.3,0.6,9.5,4.5,12.6,8.6c6.9,9.5,11.2,20.6,14,31.9
	c3.6,15.5,5.8,31.6,4,47.5c-0.5,2.8,0.1,5.6,1.5,8.1c4.2,7,7.6,14.4,10.3,22.2c0.5,1,0.7,2.5,2,2.8c1.3-0.2,2.4-1.1,3.4-1.8
	c6.3-4.4,13.9-6.8,21.5-7c7.8-0.1,15.5,2,22.6,5.2c3.6,1.8,7.4,4.8,8.3,8.9c-0.2,4.8-0.5,9.7-3.2,13.8c-2.8,4.5-8.2,6.1-13.1,7.4
	c-7,2.1-14.4,2.2-21.6,1.3c-4.3-0.5-8.1-2.9-12.4-3.3c-0.3,6.1-0.8,12.2-1.5,18.2c-1,7-5.1,13.1-10.3,17.7
	c-9.1,8.8-21.9,11.7-34,13.9c-8.4,1.5-16.9,2.5-25.4,3c-3.6,0.6-7.1,0.2-10.7,0.4c-10.8,1.3-21.7,0-32.5,1
	c-5.6,0.6-11.3,0.2-16.9,0.3c-5.9-0.1-11.7,0.3-17.5-0.4c-6.3-0.7-12.5,0.3-18.8-0.6c-3.9-0.6-7.9,0.1-11.8-0.6
	c-16.6-0.8-33.4-2.2-49.4-7.1c-8.9-2.8-17.5-7.9-22.8-15.8c-2.5-3.6-4-7.8-4.6-12.2c-0.4-5.5,0.3-10.9-0.4-16.4
	c0.8-17.2,7.5-33.5,15.7-48.4c2.4-4.2,2.9-9.2,2.4-13.9C78.9,125.5,83.6,99.4,96.6,77.6 M112.3,84c-7.1,3.4-12.6,9.7-15.8,16.9
	c-5.9,11.2-9.4,23.5-10.3,36.1c-0.8,3.6-0.4,7.4-0.5,11.2c0.6,0.4,1.2,0.9,1.8,1.3c2-2.2,3.6-4.8,5.6-7c1.8-2,4.6-3,5.7-5.6
	c11-11.1,26.8-15,41.8-17.3c4.4-0.6,8.8-1.4,13.1-2c0.5-0.5,0.9-0.9,1.3-1.3c-1.4-3.5-4.2-6.1-6.3-9.1c-5.6-7-11.8-13.8-19.2-19
	c-2.9-2-5.9-4.1-9.4-4.8C117.5,83.1,114.7,82.7,112.3,84 M258.9,83.8c-3.8,0.5-6.7,3.2-9.7,5.4c-9.3,6.7-16.9,15.4-23,25
	c-0.6,0.9-0.7,2.1-0.2,3c4.4,1.1,9.2,0.3,13.4,2.2c2.3,1.3,5,1.3,7.4,1.7c8.7,1.3,17.3,3.8,24.9,8.4c4.4,2.8,8.6,6.1,12,10l-0.1,0.3
	c2.8,2.3,5.5,4.7,8,7.2c0.7,0.5,1.6,1.7,2.5,1c0.8-3.2-0.8-6.6-0.4-9.9c-1.1-15.9-5.8-31.8-14.9-45c-1.7-2.3-3.3-4.6-5.7-6.2
	C269.3,83.7,263.9,82.5,258.9,83.8 M128.1,158.6c-7.9,4.1-13.4,12.2-15.3,20.8c-0.4,0.9,0.3,1.6,0.5,2.4c1,0.2,2.2,1.2,3.2,0.3
	c0.9-0.6,1-1.7,1.3-2.6c1.8-6.7,6-13,12.2-16.4c6-3.5,13.4-3.6,19.5-0.4c5.1,2.9,8.9,7.8,10,13.6c0.2,1.2,0.7,2.2,1.3,3.2
	c1.4,0,2.9,0,3.8-1.3c0.2-4.7-1.3-9.2-4-12.9C153.3,155.5,138.7,152.6,128.1,158.6 M219.1,165.9c-2.5,3.6-4,8.2-3.2,12.7
	c0.9,1.2,2.5,0.7,3.6,0.9c1.1-2.3,1.1-5,2.2-7.4c2.6-6.4,8.6-10.8,15.4-11.6c5.9-0.6,11.9,1.1,16.5,4.9c4.8,3.9,7.4,9.9,9.3,15.6
	c0.6,1.8,2.6,1.3,4,0.6c0.2-1,0.6-1.9,0.4-2.9c-1.7-9.7-9-18-18.1-21.6C238.7,153,225.6,156.6,219.1,165.9 M183.5,177.7
	c-1.5,1-2.5,3.2-1.6,5c1.3,2.2,3.4,3.7,4.9,5.7c0.6,0.7,1.5,1.6,1.1,2.6c-0.7,2.5-1.8,4.8-3.2,7c-2.6,3.9-8.2,5.9-12.4,3.7
	c-2.3-1-3.8-2.9-5.4-4.8c-1.7-0.6-2.5,1.7-1.7,2.9c3.2,4.4,9,7,14.3,5.5c3.6-1,6.4-3.6,8.3-6.8c0.7-0.9,1.3-2.5,2.7-2.2
	c1.2,1.2,1.7,2.9,2.8,4.2c1.5,1.9,3.5,3.4,5.7,4.3h0.1c5.6,2.1,12.9,0.1,15.8-5.4c1-1.3-0.7-3.5-2.1-2.1c-2.4,2.9-5.7,5.5-9.7,5.2
	c-4.4-0.4-7.8-4-9.7-7.7c-1.2-2.1-1.3-4.6-0.1-6.7c1.2-2.1,3.4-3.2,4.7-5.2c1-1.7,0.6-4-1.3-5.1c-0.2-0.1-0.3-0.2-0.5-0.2
	c-2.9-0.2-5.9,0.1-8.8-0.2C186.3,177.4,184.8,177.1,183.5,177.7 M82.8,187c-0.5,0.8-0.2,1.9,0.6,2.4c0.2,0.1,0.2,0.2,0.4,0.2
	c5.5,2.6,11.1,5.2,16.7,7.8c1,0.6,2.1-0.1,2.3-1.1c-0.2-1.3-1.4-1.9-2.5-2.4c-4.7-2.2-9.4-4.4-14.1-6.5
	C85,186.9,83.8,186.1,82.8,187 M279.3,194.2c-1,0.4-1.8,1.2-2.3,2.1c0.3,0.6,0.6,1.3,0.9,1.9c6.7-3.1,13.3-6.3,19.9-9.5
	c0.2-1.2-0.6-2.6-2-2C290.2,189,284.8,191.8,279.3,194.2 M357.8,191.4c-0.2,0.2-0.5,0.5-0.6,0.6c-0.6,4,0.6,8,3.1,11.2
	c0.4,0.7,1.7,1,2,0.1c2.2-3.6,0.8-8.4-1.9-11.5C359.7,191,358.6,191.3,357.8,191.4 M344.6,195.6c-0.6,3.9,0.7,8,3.8,10.5
	c2.1-2.3,2.8-5.5,1.8-8.6c-0.6-1.9-0.9-4.4-2.6-5.5C345.6,191.8,344.7,194,344.6,195.6 M320.1,198.2c-0.7,3.3,0.9,6.6,2.9,9.1
	c2.3-3.2,2.5-7.4,2.1-11.2c-0.1-1.3-0.9-2.9-2.4-2.7C320.9,194.2,320.5,196.5,320.1,198.2 M333.4,194.3c-2.2,4.2-2,10.1,1.6,13.6
	c2.6-3.3,1.5-7.8,1.4-11.7C336.4,194.5,334.6,194.2,333.4,194.3 M75.2,214c0,1-0.2,2.5,1.2,2.5c5.2-0.2,10.5-1.5,15.6-2.5
	c2.9-0.1,6.2-0.8,7.9-3.4C91.5,210.2,83.4,212.6,75.2,214 M281.5,211.4c6.2,3,13.2,3.3,19.9,4.8c1.1,0.2,2.5,0.6,3.5-0.1
	c0.7-0.9,0.2-2.4-1-2.3C296.5,212.5,289,210.4,281.5,211.4 M279.5,223.2c-0.4,1.3,0.9,2,1.7,2.6c5.8,3.2,9.8,9.3,16.5,11
	c-3.4-6.1-10.1-9.1-14.6-14.2C282.3,221.4,279.8,221.4,279.5,223.2 M97.1,223.8c-4.9,2.9-9.3,6.5-13.1,10.8c-0.9,1-1.7,2.2-2.2,3.5
	c7.4-4,13.8-9.7,19.7-15.6C100,222.6,98.4,223,97.1,223.8L97.1,223.8z"/>
<path id="Tracé_2" class="st2" d="M112.3,84c2.4-1.3,5.2-1,7.8-0.8c3.5,0.7,6.5,2.9,9.4,4.8c7.4,5.2,13.6,11.9,19.2,19
	c2.1,3,4.9,5.6,6.3,9.1c-0.5,0.5-0.9,0.9-1.3,1.3c-4.4,0.6-8.8,1.3-13.1,2c-0.2-1.3-0.6-2.6-1.2-3.8c-4.5-7-9.7-13.9-16.5-18.9
	c-2.8-2-6.3-3.6-9.8-2.5c-4.3,1.3-6.9,5.3-9.1,9c-3.5,5.9-5.5,12.6-6.8,19.2c-1.1,5.5-3.5,11.5-0.9,16.9c0.9-0.9,1.7-1.8,2.5-2.7
	c-1.1,2.6-3.9,3.6-5.7,5.6c-2,2.2-3.6,4.7-5.6,7c-0.6-0.4-1.2-0.9-1.8-1.3c0.1-3.7-0.3-7.4,0.5-11.2c0.9-12.6,4.4-24.9,10.3-36.1
	C99.7,93.7,105.1,87.4,112.3,84z"/>
<path id="Tracé_3" class="st2" d="M258.9,83.8c5.1-1.3,10.4-0.1,14.5,3.2c2.4,1.6,4,4,5.7,6.2c9.1,13.2,13.9,29.1,14.9,45
	c-0.4,3.3,1.2,6.6,0.4,9.9c-0.9,0.7-1.8-0.5-2.5-1c-2.5-2.5-5.2-5-8-7.2l0.1-0.3c2.4-5.3,0-10.9-1-16.2c-1.4-8.6-4.4-17-9.6-24
	c-2.2-3-5.6-5.7-9.5-5.3c-4.5,0.5-8.1,3.7-11.2,6.7c-4.8,4.5-8.6,10-12.3,15.3c-0.8,1-0.7,2.4-0.9,3.6c-4.3-1.8-9-1.1-13.4-2.2
	c-0.6-1-0.5-2.1,0.2-3c6-9.7,13.7-18.4,23-25C252.2,87,255.1,84.2,258.9,83.8z"/>
<path id="Tracé_4" class="st2" d="M369.2,192.7v-0.2c6.6,13.1,8.3,28,8.5,42.6c-0.2,12.9-3.2,26.1-10.5,37
	c-6.2,9.3-15.4,16.4-25.7,20.7c-10.8,4.5-22.5,6.7-34.3,6.4c1.7-2.3,2.5-5,2.3-7.8c0-7.5,0.5-15,0.2-22.5c-0.2-1.1-0.3-2.3-0.7-3.4
	c-1.6,0.2-3,0.8-4.2,1.9c-8.2,7-18.8,10.2-29.1,12.7c-21.3,5.1-43.3,4-65,5c-33.5,0.4-67.1,1-100.4-3.9
	c-10.7-1.7-21.5-4.7-30.6-10.6c-2.5-1.6-4.8-3.6-7-5.4c-6.5-6.3-10-15.4-10.5-24.5c-0.5-8.6-1.3-17.1,0-25.7
	c0.1-0.7,0.2-1.3,0.3-2.1c0.7,5.5,0.1,10.9,0.4,16.4c0.6,4.4,2.2,8.6,4.6,12.2c5.3,7.9,13.9,13.1,22.8,15.8
	c16,4.9,32.8,6.3,49.4,7.1c3.9,0.7,7.8,0.2,11.8,0.6c6.3,0.9,12.5-0.1,18.8,0.6c5.8,0.7,11.6,0.3,17.5,0.4
	c5.6-0.1,11.3,0.2,16.9-0.3c10.8-1,21.7,0.4,32.5-1c3.6-0.2,7.2,0.2,10.7-0.4c8.6-0.5,17-1.5,25.4-3c12-2.2,24.9-5.2,34-13.9
	c5.2-4.6,9.3-10.7,10.3-17.7c0.7-6,1.2-12.1,1.5-18.2c4.3,0.4,8.1,2.9,12.4,3.3c7.1,1,14.6,0.9,21.6-1.3c4.8-1.3,10.2-2.9,13.1-7.4
	C368.8,202.4,369,197.5,369.2,192.7z"/>
<path id="Tracé_5" class="st2" d="M199.2,204.7L199.2,204.7L199.2,204.7z"/>
<path id="Tracé_6" class="st3" d="M113.1,94.3c3.4-1.2,7,0.5,9.8,2.5c6.8,5,12,11.9,16.5,18.9c0.6,1.2,1,2.5,1.2,3.8
	c-15,2.3-30.8,6.3-41.8,17.3c-0.9,0.9-1.7,1.8-2.5,2.7c-2.6-5.5-0.2-11.4,0.9-16.9c1.3-6.7,3.3-13.4,6.8-19.2
	C106.2,99.6,108.8,95.6,113.1,94.3z"/>
<path id="Tracé_7" class="st3" d="M252.7,100.6c3.2-2.9,6.7-6.2,11.2-6.7c4-0.4,7.3,2.4,9.5,5.3c5.1,7,8.2,15.4,9.6,24
	c0.9,5.4,3.3,10.9,1,16.2c-3.6-3.9-7.6-7.2-12-10c-7.6-4.6-16.2-7.1-24.9-8.4c-2.5-0.4-5.1-0.5-7.4-1.7c0.2-1.2,0.2-2.5,0.9-3.6
	C244.1,110.5,247.9,105.1,252.7,100.6z"/>
<path id="Tracé_8" class="st3" d="M128.1,158.6c10.6-5.9,25.3-3,32.5,6.8c2.8,3.7,4.2,8.3,4,12.9c-0.9,1.3-2.4,1.3-3.8,1.3
	c-0.6-1-1-2.1-1.3-3.2c-1.2-5.8-4.8-10.8-10-13.6c-6.1-3.2-13.5-3.1-19.5,0.4c-6.2,3.5-10.4,9.7-12.2,16.4c-0.3,0.9-0.5,2.1-1.3,2.6
	c-1,0.8-2.2-0.1-3.2-0.3c-0.2-0.8-0.9-1.5-0.5-2.4C114.7,170.8,120.1,162.7,128.1,158.6z"/>
<path id="Tracé_9" class="st3" d="M219.1,165.9c6.5-9.3,19.6-12.9,30.1-8.6c9.1,3.6,16.4,11.9,18.1,21.6c0.2,1-0.2,1.9-0.4,2.9
	c-1.3,0.6-3.3,1.2-4-0.6c-1.9-5.8-4.4-11.7-9.3-15.6c-4.7-3.8-10.6-5.5-16.5-4.9c-6.9,0.8-12.8,5.2-15.4,11.6
	c-1.1,2.3-1.1,5-2.2,7.4c-1.2-0.2-2.9,0.3-3.6-0.9C215.2,174.2,216.7,169.6,219.1,165.9z"/>
<path id="Tracé_10" class="st3" d="M183.5,177.7c1.3-0.6,2.8-0.2,4.1-0.2c2.9,0.2,5.9-0.1,8.8,0.2c1.9,0.8,2.7,3,1.9,4.9
	c-0.1,0.2-0.2,0.3-0.2,0.5c-1.3,2-3.6,3.2-4.7,5.2c-1.2,2.1-1.1,4.6,0.1,6.7c2,3.7,5.3,7.3,9.7,7.7c4,0.2,7.2-2.4,9.7-5.2
	c1.3-1.3,3.1,0.8,2.1,2.1c-2.9,5.5-10.1,7.4-15.8,5.4h-0.1c-2.2-0.9-4.2-2.4-5.7-4.3c-1-1.3-1.6-3-2.8-4.2c-1.4-0.3-2,1.3-2.7,2.2
	c-1.9,3.2-4.8,5.8-8.3,6.8c-5.3,1.5-11.2-1.1-14.3-5.5c-1-1.2,0-3.4,1.7-2.9c1.6,1.8,3.1,3.8,5.4,4.8c4.3,2.2,9.9,0.2,12.4-3.7
	c1.4-2.1,2.5-4.5,3.2-7c0.3-1-0.6-1.9-1.1-2.6c-1.5-2-3.7-3.5-4.9-5.7C180.9,180.9,182,178.7,183.5,177.7z"/>
<path id="Tracé_11" class="st3" d="M82.8,187c1-0.9,2.2-0.1,3.3,0.3c4.8,2.1,9.4,4.4,14.1,6.5c1,0.5,2.3,1.1,2.5,2.4
	c-0.2,1-1.3,1.8-2.3,1.1c-5.6-2.5-11.2-5.1-16.7-7.8c-0.9-0.3-1.4-1.3-1.1-2.1C82.6,187.2,82.7,187.1,82.8,187z"/>
<path id="Tracé_12" class="st3" d="M279.3,194.2c5.5-2.5,10.9-5.2,16.5-7.5c1.4-0.6,2.1,0.7,2,2c-6.6,3.2-13.2,6.5-19.9,9.5
	c-0.3-0.6-0.6-1.3-0.9-1.9C277.5,195.4,278.3,194.6,279.3,194.2z"/>
<path id="Tracé_13" class="st3" d="M357.8,191.4c0.9-0.1,1.9-0.3,2.5,0.5c2.7,3,4,7.8,1.9,11.5c-0.3,1-1.5,0.6-2-0.1
	c-2.5-3.2-3.6-7.2-3.1-11.2C357.3,191.8,357.6,191.5,357.8,191.4z"/>
<path id="Tracé_14" class="st3" d="M344.6,195.6c0.1-1.7,1-3.8,2.9-3.6c1.7,1.2,2,3.6,2.6,5.5c1,2.9,0.3,6.2-1.8,8.6
	C345.3,203.6,344.1,199.4,344.6,195.6z"/>
<path id="Tracé_15" class="st3" d="M320.1,198.2c0.4-1.7,0.7-4,2.6-4.8c1.6-0.2,2.3,1.4,2.4,2.7c0.3,3.8,0.2,7.9-2.1,11.2
	C320.9,204.7,319.3,201.6,320.1,198.2z"/>
<path id="Tracé_16" class="st3" d="M333.4,194.3c1.3-0.1,3,0.2,3,1.9c0.1,3.9,1.2,8.5-1.4,11.7
	C331.4,204.4,331.1,198.5,333.4,194.3z"/>
<path id="Tracé_17" class="st3" d="M75.2,214c8.2-1.4,16.3-3.8,24.7-3.5c-1.7,2.6-5,3.3-7.9,3.4c-5.1,1-10.3,2.3-15.6,2.5
	C75,216.5,75.2,215,75.2,214z"/>
<path id="Tracé_18" class="st3" d="M281.5,211.4c7.5-1,15,1.1,22.4,2.4c1.3-0.1,1.7,1.5,1,2.3c-1,0.7-2.4,0.2-3.5,0.1
	C294.7,214.7,287.7,214.4,281.5,211.4z"/>
<path id="Tracé_19" class="st3" d="M279.5,223.2c0.2-1.7,2.8-1.8,3.6-0.6c4.5,5.1,11.2,8.2,14.6,14.2c-6.7-1.7-10.8-7.8-16.5-11
	C280.4,225.2,279.2,224.5,279.5,223.2z"/>
<path id="Tracé_20" class="st3" d="M97.1,223.8c1.3-0.9,2.9-1.3,4.5-1.4c-5.9,5.9-12.4,11.6-19.7,15.6c0.6-1.3,1.3-2.4,2.2-3.5
	C87.8,230.3,92.2,226.7,97.1,223.8z"/>
<path id="Tracé_21" class="st3" d="M71.6,264.5c0.2,0.2,0.8,0.5,1,0.6c2.4,1.8,4.5,3.8,7,5.4c9.2,6,20,8.9,30.6,10.6
	c33.3,4.8,66.9,4.2,100.3,3.9c21.7-1,43.7,0.2,65-5c10.3-2.5,20.8-5.8,29.1-12.7c1.2-1,2.6-1.7,4.2-1.9c0.3,1.1,0.6,2.2,0.7,3.4
	c0.3,7.5-0.2,15-0.2,22.5c0.2,2.8-0.7,5.5-2.3,7.8c-7.8,6.8-17.9,10.3-27.7,13.1c-13.4,3.8-27.3,5-41,7.3c-4,0.6-8.6,1.1-12.2-1.3
	c-4-2.5-5.5-7-8.4-10.4c-5.4-6.5-13.1-10.6-21.5-11.6c-9.1-1.1-18.8,0.3-26.5,5.2c-6,3.7-10.6,9.3-13.9,15.4
	c-0.8,1.5-1.9,3.2-3.9,3.1c-21-1-41.7-5.1-61.9-10.6c-5.4-2.9-11.1-5.2-15.7-9.3c-3.1-2.6-3.8-6.9-3.8-10.7
	C70.8,281.1,69.8,272.7,71.6,264.5z"/>
<path id="Tracé_22" class="st3" d="M187.3,306.1c3.7-1.1,7.7,0,10.4,2.8c2.5,2.6,4.5,6.3,3.8,10c-0.6,2.9-3.2,4.8-5.4,6.5
	c-2.6,2.1-6.3,3-9.5,1.5c-3.2-1.6-6.2-4.1-7.5-7.4C177.1,313.6,181.9,307.6,187.3,306.1z"/>
</svg>
