<svg id="Layer_1" data-name="Layer 1" xmlns="http://www.w3.org/2000/svg" viewBox="0 0 316.76 316.69"><defs><style>.cls-1{fill:none;}.cls-2{fill:#fdfcfc;}.cls-3{fill:#cecece;}.cls-4{fill:#575757;}</style></defs><rect class="cls-1" x="0.05" width="316.71" height="316.69"/><path id="Tracé_1" data-name="Tracé 1" class="cls-2" d="M96.62,77.59c3.17-4.9,7.36-10,13.38-11.16,6.26-1,12,2.53,16.71,6.26C139.54,83.37,149.51,97.15,157,112c.8,1.43,1.59,2.93,3,3.73,1.59.87,3.41.55,5.07.47a271.59,271.59,0,0,1,50,.08c1.82.16,3.88.24,5.38-1s2.38-3.09,3.33-4.75c7.6-14.57,17.5-28.19,30.4-38.48,4.2-3.24,9.27-6.33,14.81-5.78,5.31.56,9.5,4.51,12.59,8.63,6.89,9.5,11.24,20.59,14,31.91,3.64,15.52,5.78,31.59,3.95,47.5a12.06,12.06,0,0,0,1.51,8.08,120.22,120.22,0,0,1,10.29,22.16c.48,1,.71,2.46,2,2.78a7.86,7.86,0,0,0,3.41-1.83,39,39,0,0,1,21.53-7A53.69,53.69,0,0,1,361,183.76c3.64,1.82,7.36,4.83,8.31,9-.24,4.75-.47,9.74-3.25,13.77-2.77,4.52-8.23,6.1-13.06,7.45a52.35,52.35,0,0,1-21.62,1.26c-4.27-.47-8.07-2.93-12.35-3.32-.31,6.09-.79,12.19-1.5,18.21-.95,7-5.07,13.06-10.29,17.65-9.11,8.79-21.94,11.72-34,13.94a232.11,232.11,0,0,1-25.42,3c-3.56.63-7.12.23-10.69.39-10.77,1.35-21.69,0-32.46.95-5.62.56-11.32.16-16.94.32-5.86-.08-11.72.32-17.5-.4-6.26-.71-12.51.32-18.77-.63-3.88-.55-7.92.08-11.8-.63-16.62-.8-33.41-2.22-49.4-7.13-9-2.77-17.5-7.92-22.81-15.83a28.43,28.43,0,0,1-4.59-12.2c-.4-5.46.32-10.92-.4-16.38.8-17.18,7.53-33.49,15.68-48.38,2.38-4.19,2.85-9.18,2.38-13.93-1.67-25.34,3-51.39,16.07-73.24M112.3,84a33.38,33.38,0,0,0-15.76,16.86A91.46,91.46,0,0,0,86.25,137c-.79,3.64-.4,7.44-.48,11.17.64.39,1.19.87,1.82,1.26,2-2.21,3.65-4.75,5.63-7,1.82-2,4.59-3,5.7-5.63,11-11.08,26.84-15,41.8-17.33,4.44-.64,8.79-1.43,13.15-2l1.34-1.35c-1.42-3.48-4.19-6.1-6.33-9.1-5.62-7-11.8-13.78-19.24-19-2.93-2-5.94-4.11-9.42-4.83-2.7-.15-5.55-.47-7.92.8m146.64-.24c-3.8.47-6.73,3.25-9.66,5.38a90,90,0,0,0-23,25,2.74,2.74,0,0,0-.16,3c4.43,1.11,9.18.32,13.38,2.22,2.29,1.26,5,1.26,7.44,1.66,8.71,1.27,17.34,3.8,24.94,8.39a56.08,56.08,0,0,1,12,10l-.08.31c2.77,2.3,5.46,4.67,8,7.21.71.47,1.58,1.66,2.45,1,.79-3.25-.79-6.57-.4-9.9-1.1-15.91-5.78-31.83-14.88-45a23.63,23.63,0,0,0-5.7-6.17,16.58,16.58,0,0,0-14.33-3.09M128.05,158.59c-7.91,4.11-13.38,12.19-15.28,20.82-.39.87.32,1.58.48,2.37,1,.24,2.22,1.19,3.24.32.88-.55,1-1.74,1.35-2.61,1.82-6.73,6-13,12.19-16.39a20.3,20.3,0,0,1,19.48-.4,20,20,0,0,1,10,13.62,11.46,11.46,0,0,0,1.27,3.25c1.42,0,2.92,0,3.8-1.27a20.46,20.46,0,0,0-4-12.91c-7.21-9.89-21.86-12.74-32.47-6.8M219.11,166c-2.45,3.64-4,8.23-3.25,12.67.87,1.18,2.46.71,3.65.87,1.1-2.3,1.1-5,2.21-7.37a19,19,0,0,1,15.44-11.63,22.37,22.37,0,0,1,16.55,4.9c4.83,3.88,7.36,9.9,9.26,15.6.64,1.82,2.62,1.35,4,.64a6,6,0,0,0,.4-2.86c-1.74-9.73-9-18-18.13-21.61-10.45-4.12-23.6-.55-30.09,8.79m-35.63,11.72c-1.5,1-2.53,3.24-1.58,5,1.26,2.22,3.4,3.73,4.9,5.7.56.72,1.51,1.59,1.11,2.62a27.72,27.72,0,0,1-3.16,7c-2.62,3.88-8.16,5.94-12.43,3.73-2.3-.95-3.81-2.93-5.39-4.75-1.66-.56-2.53,1.66-1.66,2.85,3.17,4.35,9,7,14.33,5.54a14.72,14.72,0,0,0,8.31-6.81c.72-.87,1.27-2.46,2.7-2.22,1.18,1.19,1.74,2.85,2.77,4.2a13.7,13.7,0,0,0,5.7,4.27h.08c5.62,2.14,12.9.08,15.75-5.38,1-1.35-.71-3.48-2.06-2.14-2.37,2.85-5.7,5.46-9.66,5.23-4.43-.4-7.75-4-9.73-7.68a6.64,6.64,0,0,1-.08-6.65c1.18-2.06,3.4-3.25,4.67-5.23a3.65,3.65,0,0,0-1.27-5.07l-.47-.23c-2.93-.24-5.86.08-8.79-.16-1.27,0-2.69-.32-4,.24M82.76,187a1.76,1.76,0,0,0,.56,2.37c.16.08.24.16.39.16,5.55,2.61,11.09,5.23,16.71,7.76a1.54,1.54,0,0,0,2.3-1.11c-.16-1.26-1.43-1.9-2.54-2.37-4.67-2.22-9.42-4.36-14.09-6.49-1.11-.48-2.3-1.19-3.33-.32m196.53,7.2a4.82,4.82,0,0,0-2.3,2.06c.32.64.63,1.27.87,1.9,6.65-3.09,13.3-6.25,19.87-9.5.16-1.19-.55-2.61-2-2-5.54,2.3-10.92,5.07-16.46,7.52m78.46-2.85-.63.64a14.57,14.57,0,0,0,3.09,11.16c.39.71,1.66,1,2,.08,2.22-3.64.8-8.39-1.9-11.48-.63-.71-1.66-.48-2.53-.4m-13.14,4.2a11.25,11.25,0,0,0,3.8,10.45,8.82,8.82,0,0,0,1.82-8.55c-.63-1.9-.87-4.36-2.61-5.54-2-.08-2.93,2.06-3,3.64m-24.55,2.61c-.71,3.33.87,6.57,2.93,9.11,2.3-3.25,2.46-7.37,2.14-11.17-.08-1.26-.87-2.85-2.38-2.69-1.9.79-2.29,3.09-2.69,4.75m13.3-3.88c-2.21,4.2-2,10.14,1.59,13.62,2.61-3.33,1.5-7.84,1.42-11.72,0-1.66-1.74-2-3-1.9M75.16,214c0,1-.23,2.45,1.19,2.45,5.23-.24,10.45-1.5,15.6-2.53,2.93-.08,6.18-.79,7.92-3.41-8.4-.31-16.47,2.06-24.71,3.49m206.34-2.62c6.18,3,13.22,3.33,19.88,4.75,1.1.16,2.45.64,3.48-.08.71-.87.24-2.37-.95-2.29-7.36-1.27-14.89-3.33-22.41-2.38m-2,11.8c-.39,1.27.87,2,1.74,2.61,5.78,3.25,9.82,9.34,16.55,11-3.4-6.1-10.13-9.11-14.57-14.17-.95-1.27-3.48-1.19-3.72.55m-182.42.63A52,52,0,0,0,84,234.59a14.82,14.82,0,0,0-2.22,3.48c7.45-3.95,13.78-9.73,19.72-15.59a10,10,0,0,0-4.43,1.34Z" transform="translate(-61.34 -38.56)"/><path id="Tracé_2" data-name="Tracé 2" class="cls-3" d="M112.3,84c2.37-1.27,5.22-1,7.84-.8,3.48.72,6.49,2.86,9.42,4.83,7.44,5.23,13.62,11.88,19.24,19,2.14,3,4.91,5.62,6.33,9.1l-1.34,1.35c-4.44.55-8.79,1.34-13.15,2a10.47,10.47,0,0,0-1.18-3.8c-4.52-7.05-9.74-13.86-16.55-18.93-2.77-2-6.34-3.64-9.82-2.45-4.28,1.34-6.89,5.3-9.11,9a60,60,0,0,0-6.8,19.24c-1.11,5.55-3.49,11.48-.88,16.95.88-.88,1.67-1.83,2.54-2.7-1.11,2.62-3.88,3.65-5.7,5.63-2,2.21-3.65,4.67-5.62,7-.64-.39-1.19-.87-1.83-1.26.08-3.73-.31-7.45.48-11.17a91.46,91.46,0,0,1,10.29-36.1C99.71,93.67,105.09,87.41,112.3,84Z" transform="translate(-61.34 -38.56)"/><path id="Tracé_3" data-name="Tracé 3" class="cls-3" d="M258.94,83.77a16.75,16.75,0,0,1,14.49,3.17c2.37,1.58,4,4,5.7,6.17,9.1,13.22,13.85,29.14,14.88,45-.39,3.33,1.19,6.57.4,9.9-.87.71-1.82-.48-2.46-.95a97,97,0,0,0-8-7.21l.08-.31c2.37-5.31,0-10.93-1-16.23-1.43-8.55-4.44-17-9.58-24-2.22-3-5.63-5.7-9.51-5.31-4.51.48-8.07,3.72-11.24,6.65-4.83,4.52-8.55,10-12.27,15.28-.79,1-.71,2.38-.87,3.57-4.28-1.83-9-1.11-13.38-2.22a2.76,2.76,0,0,1,.15-3,86.89,86.89,0,0,1,23-25C252.21,87,255.06,84.24,258.94,83.77Z" transform="translate(-61.34 -38.56)"/><path id="Tracé_4" data-name="Tracé 4" class="cls-3" d="M369.23,192.71v-.24c6.57,13.14,8.32,28,8.47,42.6-.23,12.9-3.24,26.12-10.53,37-6.17,9.34-15.44,16.39-25.65,20.74a83.31,83.31,0,0,1-34.28,6.41,12,12,0,0,0,2.29-7.83c0-7.52.48-15.05.16-22.49a17.9,17.9,0,0,0-.71-3.4,7.07,7.07,0,0,0-4.2,1.9c-8.23,7-18.84,10.21-29.14,12.74-21.3,5.15-43.31,4-65,5-33.49.4-67.15.95-100.4-3.88-10.69-1.66-21.46-4.67-30.64-10.61a78,78,0,0,1-7-5.38c-6.49-6.33-10-15.44-10.53-24.46-.48-8.55-1.27-17.1,0-25.66.08-.71.24-1.34.32-2.05.71,5.46.08,10.92.39,16.38a30.59,30.59,0,0,0,4.59,12.2c5.31,7.91,13.86,13.06,22.81,15.83,16,4.91,32.78,6.34,49.41,7.13,3.88.71,7.83.16,11.79.63,6.26.87,12.51-.08,18.77.63,5.78.72,11.64.32,17.5.4,5.62-.08,11.32.24,16.94-.32,10.77-.95,21.7.4,32.46-.95,3.57-.16,7.21.24,10.69-.39a211.89,211.89,0,0,0,25.42-3c12-2.22,24.86-5.23,34-13.94,5.22-4.59,9.34-10.68,10.29-17.65.71-6,1.19-12.11,1.5-18.21,4.28.4,8.08,2.85,12.36,3.32a51.15,51.15,0,0,0,21.61-1.26c4.83-1.35,10.22-2.93,13.07-7.44C368.76,202.45,369,197.46,369.23,192.71Z" transform="translate(-61.34 -38.56)"/><path id="Tracé_5" data-name="Tracé 5" class="cls-3" d="M199.16,204.74Z" transform="translate(-61.34 -38.56)"/><path id="Tracé_6" data-name="Tracé 6" class="cls-4" d="M113.09,94.3c3.4-1.19,7,.47,9.82,2.45,6.81,5,12,11.88,16.55,18.93a10.47,10.47,0,0,1,1.18,3.8c-15,2.29-30.8,6.33-41.8,17.33-.87.87-1.66,1.82-2.54,2.7-2.61-5.47-.23-11.4.88-16.95a58.69,58.69,0,0,1,6.8-19.24C106.2,99.6,108.81,95.64,113.09,94.3Z" transform="translate(-61.34 -38.56)"/><path id="Tracé_7" data-name="Tracé 7" class="cls-4" d="M252.68,100.63c3.17-2.93,6.73-6.17,11.24-6.65,4-.39,7.29,2.38,9.51,5.31a56.28,56.28,0,0,1,9.58,24c.87,5.38,3.32,10.92.95,16.23a58.09,58.09,0,0,0-12-10A66.41,66.41,0,0,0,247,121.14c-2.53-.4-5.15-.48-7.44-1.66a8,8,0,0,1,.87-3.57C244.13,110.53,247.85,105.07,252.68,100.63Z" transform="translate(-61.34 -38.56)"/><path id="Tracé_8" data-name="Tracé 8" class="cls-4" d="M128.05,158.59c10.61-5.86,25.26-3,32.55,6.8a20.54,20.54,0,0,1,4,12.91c-.87,1.27-2.37,1.27-3.8,1.27a9.69,9.69,0,0,1-1.26-3.25,19.72,19.72,0,0,0-29.46-13.22c-6.17,3.48-10.37,9.74-12.19,16.39-.32.87-.48,2.06-1.35,2.61-1,.79-2.21-.08-3.24-.32-.16-.79-.87-1.5-.48-2.37C114.67,170.78,120.14,162.7,128.05,158.59Z" transform="translate(-61.34 -38.56)"/><path id="Tracé_9" data-name="Tracé 9" class="cls-4" d="M219.11,166c6.49-9.34,19.64-12.91,30.09-8.63,9.1,3.64,16.39,11.88,18.13,21.61a5.9,5.9,0,0,1-.4,2.85c-1.34.64-3.32,1.19-4-.63-1.9-5.78-4.43-11.72-9.26-15.6a22.42,22.42,0,0,0-16.55-4.91,19,19,0,0,0-15.44,11.64c-1.11,2.3-1.11,5-2.21,7.37-1.19-.24-2.85.31-3.65-.88A18.3,18.3,0,0,1,219.11,166Z" transform="translate(-61.34 -38.56)"/><path id="Tracé_10" data-name="Tracé 10" class="cls-4" d="M183.48,177.67c1.35-.56,2.77-.24,4.12-.24,2.93.24,5.86-.08,8.79.16a3.72,3.72,0,0,1,1.9,4.91l-.24.47c-1.35,2-3.56,3.17-4.67,5.23a6.64,6.64,0,0,0,.08,6.65c2,3.72,5.3,7.28,9.73,7.68,4,.23,7.21-2.38,9.66-5.23,1.27-1.34,3.09.79,2.06,2.14-2.85,5.46-10.13,7.44-15.75,5.38h-.08a13.7,13.7,0,0,1-5.7-4.27c-1-1.35-1.59-3-2.77-4.2-1.43-.32-2,1.35-2.7,2.22a14.76,14.76,0,0,1-8.31,6.81c-5.31,1.5-11.16-1.11-14.33-5.55-1-1.18,0-3.4,1.66-2.85,1.58,1.83,3.09,3.8,5.39,4.75,4.27,2.22,9.89.16,12.43-3.72a25.15,25.15,0,0,0,3.16-7c.32-1-.55-1.9-1.11-2.62-1.5-2-3.72-3.48-4.9-5.7C181,180.91,182,178.7,183.48,177.67Z" transform="translate(-61.34 -38.56)"/><path id="Tracé_11" data-name="Tracé 11" class="cls-4" d="M82.76,187c1-.87,2.22-.08,3.33.32,4.75,2.13,9.42,4.35,14.09,6.49,1,.47,2.3,1.11,2.54,2.37a1.5,1.5,0,0,1-2.3,1.11c-5.62-2.53-11.16-5.15-16.71-7.76a1.71,1.71,0,0,1-1.1-2.14A.66.66,0,0,1,82.76,187Z" transform="translate(-61.34 -38.56)"/><path id="Tracé_12" data-name="Tracé 12" class="cls-4" d="M279.29,194.21c5.54-2.45,10.92-5.22,16.54-7.52,1.43-.63,2.14.71,2,2-6.57,3.25-13.22,6.49-19.87,9.5a18.94,18.94,0,0,1-.87-1.9A4.64,4.64,0,0,1,279.29,194.21Z" transform="translate(-61.34 -38.56)"/><path id="Tracé_13" data-name="Tracé 13" class="cls-4" d="M357.75,191.36c.87-.08,1.9-.31,2.53.48,2.7,3,4,7.76,1.9,11.48-.31,1-1.5.63-2-.08a14.59,14.59,0,0,1-3.09-11.16A5.79,5.79,0,0,1,357.75,191.36Z" transform="translate(-61.34 -38.56)"/><path id="Tracé_14" data-name="Tracé 14" class="cls-4" d="M344.61,195.56c.08-1.66.95-3.8,2.93-3.56,1.74,1.18,2,3.64,2.61,5.54a8.71,8.71,0,0,1-1.82,8.55A11.82,11.82,0,0,1,344.61,195.56Z" transform="translate(-61.34 -38.56)"/><path id="Tracé_15" data-name="Tracé 15" class="cls-4" d="M320.06,198.17c.4-1.74.71-4,2.61-4.75,1.59-.16,2.3,1.43,2.38,2.69.32,3.8.16,7.92-2.14,11.17C320.93,204.74,319.35,201.58,320.06,198.17Z" transform="translate(-61.34 -38.56)"/><path id="Tracé_16" data-name="Tracé 16" class="cls-4" d="M333.36,194.29c1.27-.08,3,.24,3,1.9.08,3.88,1.19,8.47-1.42,11.72C331.38,204.43,331.15,198.49,333.36,194.29Z" transform="translate(-61.34 -38.56)"/><path id="Tracé_17" data-name="Tracé 17" class="cls-4" d="M75.16,214c8.24-1.43,16.31-3.8,24.71-3.49-1.74,2.62-5,3.33-7.92,3.41-5.15,1-10.29,2.29-15.6,2.53C75,216.46,75.16,215,75.16,214Z" transform="translate(-61.34 -38.56)"/><path id="Tracé_18" data-name="Tracé 18" class="cls-4" d="M281.5,211.39c7.52-.95,15.05,1.11,22.41,2.38a1.35,1.35,0,0,1,.95,2.29c-1,.72-2.38.16-3.48.08C294.72,214.72,287.68,214.4,281.5,211.39Z" transform="translate(-61.34 -38.56)"/><path id="Tracé_19" data-name="Tracé 19" class="cls-4" d="M279.52,223.19c.24-1.74,2.77-1.82,3.64-.63,4.52,5.14,11.17,8.15,14.57,14.17-6.73-1.66-10.76-7.76-16.54-11C280.39,225.17,279.21,224.46,279.52,223.19Z" transform="translate(-61.34 -38.56)"/><path id="Tracé_20" data-name="Tracé 20" class="cls-4" d="M97.1,223.82a9.18,9.18,0,0,1,4.51-1.42C95.67,228.34,89.26,234,81.89,238a16.48,16.48,0,0,1,2.22-3.49A53,53,0,0,1,97.1,223.82Z" transform="translate(-61.34 -38.56)"/><path id="Tracé_21" data-name="Tracé 21" class="cls-4" d="M71.6,264.52c.24.16.79.47,1,.63,2.38,1.82,4.51,3.8,7.05,5.38,9.18,6,19.95,9,30.64,10.61,33.25,4.75,66.9,4.2,100.32,3.88,21.69-.95,43.7.16,65-5,10.3-2.54,20.83-5.78,29.14-12.75a8.17,8.17,0,0,1,4.2-1.9,25,25,0,0,1,.71,3.4c.32,7.52-.16,15-.16,22.49a12.68,12.68,0,0,1-2.29,7.84c-7.84,6.8-17.9,10.29-27.72,13.14-13.38,3.8-27.31,5-41,7.28-4,.64-8.55,1.11-12.2-1.26-3.95-2.46-5.54-7-8.39-10.38a32.75,32.75,0,0,0-21.53-11.56c-9.11-1.1-18.77.32-26.53,5.23-6,3.72-10.61,9.34-13.93,15.44-.8,1.5-1.9,3.24-3.88,3.09-21-1-41.73-5.07-61.92-10.61-5.39-2.85-11.09-5.23-15.68-9.35-3.09-2.61-3.8-6.88-3.8-10.68C70.81,281.14,69.78,272.67,71.6,264.52Z" transform="translate(-61.34 -38.56)"/><path id="Tracé_22" data-name="Tracé 22" class="cls-4" d="M187.28,306.08a10.32,10.32,0,0,1,10.37,2.77c2.46,2.62,4.52,6.26,3.8,10-.55,2.93-3.24,4.75-5.38,6.49-2.61,2.06-6.34,3-9.5,1.51s-6.18-4.12-7.52-7.45C177.15,313.6,181.9,307.59,187.28,306.08Z" transform="translate(-61.34 -38.56)"/></svg>