<?xml version="1.0" encoding="utf-8"?>
<!-- Generator: Adobe Illustrator 26.4.1, SVG Export Plug-In . SVG Version: 6.00 Build 0)  -->
<svg version="1.1" id="Layer_1" xmlns="http://www.w3.org/2000/svg" xmlns:xlink="http://www.w3.org/1999/xlink" x="0px" y="0px"
	 viewBox="0 0 400 400" style="enable-background:new 0 0 400 400;" xml:space="preserve">
<style type="text/css">
	.st0{fill:none;}
	.st1{fill:#FDFCFC;}
	.st2{fill:#CECECE;}
	.st3{fill:#575757;}
</style>
<rect class="st0" width="400" height="400"/>
<path id="Tracé_1" class="st1" d="M44.5,49.3c4-6.2,9.3-12.7,16.9-14.1c7.9-1.3,15.2,3.2,21.1,7.9c16.2,13.5,28.8,30.9,38.3,49.6
	c1,1.8,2,3.7,3.8,4.7c2,1.1,4.3,0.7,6.4,0.6c21-1.9,42.1-1.9,63.2,0.1c2.3,0.2,4.9,0.3,6.8-1.2c2-1.5,3-3.9,4.2-6
	c9.6-18.4,22.1-35.6,38.4-48.6c5.3-4.1,11.7-8,18.7-7.3c6.7,0.7,12,5.7,15.9,10.9c8.7,12,14.2,26,17.7,40.3c4.6,19.6,7.3,39.9,5,60
	c-0.6,3.5,0.1,7.1,1.9,10.2c5.3,8.9,9.6,18.2,13,28c0.6,1.3,0.9,3.1,2.5,3.5c1.7-0.2,3-1.4,4.3-2.3c8-5.6,17.5-8.6,27.2-8.8
	c9.9-0.1,19.6,2.5,28.6,6.6c4.6,2.3,9.3,6.1,10.5,11.3c-0.3,6-0.6,12.3-4.1,17.4c-3.5,5.7-10.4,7.7-16.5,9.4
	c-8.8,2.6-18.2,2.8-27.3,1.6c-5.4-0.6-10.2-3.7-15.6-4.2c-0.4,7.7-1,15.4-1.9,23c-1.2,8.8-6.4,16.5-13,22.3
	c-11.5,11.1-27.7,14.8-42.9,17.6c-10.6,1.9-21.4,3.1-32.1,3.8c-4.5,0.8-9,0.3-13.5,0.5c-13.6,1.7-27.4,0-41,1.2
	c-7.1,0.7-14.3,0.2-21.4,0.4c-7.4-0.1-14.8,0.4-22.1-0.5c-7.9-0.9-15.8,0.4-23.7-0.8c-4.9-0.7-10,0.1-14.9-0.8
	c-21-1-42.2-2.8-62.4-9c-11.3-3.5-22.1-10-28.8-20c-3.1-4.6-5.1-9.9-5.8-15.4c-0.5-6.9,0.4-13.8-0.5-20.7c1-21.7,9.5-42.3,19.8-61.1
	c3-5.3,3.6-11.6,3-17.6C22.1,109.8,28,76.9,44.5,49.3 M64.3,57.4c-9,4.3-15.9,12.2-19.9,21.3c-7.4,14.1-11.9,29.7-13,45.6
	c-1,4.6-0.5,9.4-0.6,14.1c0.8,0.5,1.5,1.1,2.3,1.6c2.5-2.8,4.6-6,7.1-8.8c2.3-2.5,5.8-3.8,7.2-7.1c13.9-14,33.9-19,52.8-21.9
	c5.6-0.8,11.1-1.8,16.6-2.5c0.6-0.6,1.1-1.1,1.7-1.7c-1.8-4.4-5.3-7.7-8-11.5c-7.1-8.9-14.9-17.4-24.3-24c-3.7-2.5-7.5-5.2-11.9-6.1
	C70.9,56.2,67.3,55.8,64.3,57.4 M249.5,57.1c-4.8,0.6-8.5,4.1-12.2,6.8c-11.7,8.4-21.4,19.5-29.1,31.6c-0.8,1.1-0.9,2.6-0.2,3.8
	c5.6,1.4,11.6,0.4,16.9,2.8c2.9,1.6,6.3,1.6,9.4,2.1c11,1.6,21.9,4.8,31.5,10.6c5.6,3.5,10.8,7.7,15.2,12.6l-0.1,0.4
	c3.5,2.9,6.9,5.9,10.1,9.1c0.9,0.6,2,2.1,3.1,1.2c1-4.1-1-8.3-0.5-12.5c-1.4-20.1-7.3-40.2-18.8-56.8c-2.1-2.9-4.2-5.8-7.2-7.8
	C262.6,57,255.8,55.5,249.5,57.1 M84.2,151.6c-10,5.2-16.9,15.4-19.3,26.3c-0.5,1.1,0.4,2,0.6,3c1.3,0.3,2.8,1.5,4.1,0.4
	c1.1-0.7,1.2-2.2,1.7-3.3c2.3-8.5,7.6-16.4,15.4-20.7c7.6-4.4,16.9-4.5,24.6-0.5c6.5,3.6,11.2,9.9,12.6,17.2
	c0.3,1.5,0.9,2.8,1.6,4.1c1.8,0,3.7,0,4.8-1.6c0.2-5.9-1.6-11.6-5.1-16.3C116.1,147.7,97.6,144.1,84.2,151.6 M199.2,160.9
	c-3.1,4.6-5,10.4-4.1,16c1.1,1.5,3.1,0.9,4.6,1.1c1.4-2.9,1.4-6.3,2.8-9.3c3.3-8.1,10.8-13.7,19.5-14.7c7.5-0.8,15,1.4,20.9,6.2
	c6.1,4.9,9.3,12.5,11.7,19.7c0.8,2.3,3.3,1.7,5,0.8c0.3-1.2,0.8-2.4,0.5-3.6c-2.2-12.3-11.4-22.7-22.9-27.3
	C224,144.6,207.4,149.1,199.2,160.9 M154.2,175.7c-1.9,1.3-3.2,4.1-2,6.3c1.6,2.8,4.3,4.7,6.2,7.2c0.7,0.9,1.9,2,1.4,3.3
	c-0.9,3.1-2.3,6.1-4,8.8c-3.3,4.9-10.3,7.5-15.7,4.7c-2.9-1.2-4.8-3.7-6.8-6c-2.1-0.7-3.2,2.1-2.1,3.6c4,5.5,11.4,8.9,18.1,7
	c4.5-1.3,8.1-4.6,10.5-8.6c0.9-1.1,1.6-3.1,3.4-2.8c1.5,1.5,2.2,3.6,3.5,5.3c1.9,2.4,4.4,4.3,7.2,5.4l0.1,0
	c7.1,2.7,16.3,0.1,19.9-6.8c1.3-1.7-0.9-4.4-2.6-2.7c-3,3.6-7.2,6.9-12.2,6.6c-5.6-0.5-9.8-5-12.3-9.7c-1.5-2.6-1.6-5.8-0.1-8.4
	c1.5-2.6,4.3-4.1,5.9-6.6c1.3-2.2,0.7-5.1-1.6-6.4c-0.2-0.1-0.4-0.2-0.6-0.3c-3.7-0.3-7.4,0.1-11.1-0.2
	C157.7,175.4,155.9,175,154.2,175.7 M27,187.5c-0.6,1-0.3,2.4,0.7,3c0.2,0.1,0.3,0.2,0.5,0.2c7,3.3,14,6.6,21.1,9.8
	c1.2,0.8,2.6-0.1,2.9-1.4c-0.2-1.6-1.8-2.4-3.2-3c-5.9-2.8-11.9-5.5-17.8-8.2C29.8,187.3,28.3,186.4,27,187.5 M275.2,196.6
	c-1.2,0.5-2.3,1.5-2.9,2.6c0.4,0.8,0.8,1.6,1.1,2.4c8.4-3.9,16.8-7.9,25.1-12c0.2-1.5-0.7-3.3-2.5-2.5
	C289,190,282.2,193.5,275.2,196.6 M374.3,193c-0.2,0.2-0.6,0.6-0.8,0.8c-0.7,5,0.7,10.1,3.9,14.1c0.5,0.9,2.1,1.3,2.5,0.1
	c2.8-4.6,1-10.6-2.4-14.5C376.7,192.6,375.4,192.9,374.3,193 M357.7,198.3c-0.7,4.9,0.9,10.1,4.8,13.2c2.6-2.9,3.5-7,2.3-10.8
	c-0.8-2.4-1.1-5.5-3.3-7C359,193.6,357.8,196.3,357.7,198.3 M326.7,201.6c-0.9,4.2,1.1,8.3,3.7,11.5c2.9-4.1,3.1-9.3,2.7-14.1
	c-0.1-1.6-1.1-3.6-3-3.4C327.7,196.6,327.2,199.5,326.7,201.6 M343.5,196.7c-2.8,5.3-2.5,12.8,2,17.2c3.3-4.2,1.9-9.9,1.8-14.8
	C347.3,197,345.1,196.6,343.5,196.7 M17.4,221.6c0,1.3-0.3,3.1,1.5,3.1c6.6-0.3,13.2-1.9,19.7-3.2c3.7-0.1,7.8-1,10-4.3
	C38,216.8,27.8,219.8,17.4,221.6 M278,218.3c7.8,3.8,16.7,4.2,25.1,6c1.4,0.2,3.1,0.8,4.4-0.1c0.9-1.1,0.3-3-1.2-2.9
	C297,219.7,287.5,217.1,278,218.3 M275.5,233.2c-0.5,1.6,1.1,2.5,2.2,3.3c7.3,4.1,12.4,11.8,20.9,13.9c-4.3-7.7-12.8-11.5-18.4-17.9
	C279,230.9,275.8,231,275.5,233.2 M45.1,234c-6.2,3.6-11.8,8.2-16.5,13.6c-1.1,1.3-2.1,2.8-2.8,4.4c9.4-5,17.4-12.3,24.9-19.7
	C48.8,232.4,46.8,233,45.1,234L45.1,234z"/>
<path id="Tracé_2" class="st2" d="M64.3,57.4c3-1.6,6.6-1.2,9.9-1c4.4,0.9,8.2,3.6,11.9,6.1c9.4,6.6,17.2,15,24.3,24
	c2.7,3.8,6.2,7.1,8,11.5c-0.6,0.6-1.1,1.1-1.7,1.7c-5.6,0.7-11.1,1.7-16.6,2.5c-0.2-1.7-0.7-3.3-1.5-4.8
	c-5.7-8.9-12.3-17.5-20.9-23.9c-3.5-2.5-8-4.6-12.4-3.1c-5.4,1.7-8.7,6.7-11.5,11.4c-4.4,7.5-7,15.9-8.6,24.3
	c-1.4,7-4.4,14.5-1.1,21.4c1.1-1.1,2.1-2.3,3.2-3.4c-1.4,3.3-4.9,4.6-7.2,7.1c-2.5,2.8-4.6,5.9-7.1,8.8c-0.8-0.5-1.5-1.1-2.3-1.6
	c0.1-4.7-0.4-9.4,0.6-14.1c1.1-15.9,5.6-31.5,13-45.6C48.4,69.6,55.2,61.7,64.3,57.4z"/>
<path id="Tracé_3" class="st2" d="M249.5,57.1c6.4-1.6,13.1-0.1,18.3,4c3,2,5.1,5,7.2,7.8c11.5,16.7,17.5,36.8,18.8,56.8
	c-0.5,4.2,1.5,8.3,0.5,12.5c-1.1,0.9-2.3-0.6-3.1-1.2c-3.2-3.2-6.6-6.3-10.1-9.1l0.1-0.4c3-6.7,0-13.8-1.2-20.5
	c-1.8-10.8-5.6-21.5-12.1-30.3c-2.8-3.8-7.1-7.2-12-6.7c-5.7,0.6-10.2,4.7-14.2,8.4c-6.1,5.7-10.8,12.6-15.5,19.3
	c-1,1.3-0.9,3-1.1,4.5c-5.4-2.3-11.4-1.4-16.9-2.8c-0.7-1.2-0.6-2.7,0.2-3.8c7.6-12.2,17.3-23.2,29.1-31.6
	C241,61.2,244.6,57.7,249.5,57.1z"/>
<path id="Tracé_4" class="st2" d="M388.8,194.7l0-0.3c8.3,16.6,10.5,35.4,10.7,53.8c-0.3,16.3-4.1,33-13.3,46.7
	c-7.8,11.8-19.5,20.7-32.4,26.2c-13.7,5.7-28.4,8.5-43.3,8.1c2.1-2.9,3.1-6.3,2.9-9.9c0-9.5,0.6-19,0.2-28.4
	c-0.2-1.4-0.4-2.9-0.9-4.3c-2,0.2-3.8,1-5.3,2.4c-10.4,8.8-23.8,12.9-36.8,16.1c-26.9,6.5-54.7,5-82.1,6.3
	c-42.3,0.5-84.8,1.2-126.8-4.9c-13.5-2.1-27.1-5.9-38.7-13.4c-3.2-2-6-4.5-8.9-6.8c-8.2-8-12.6-19.5-13.3-30.9
	c-0.6-10.8-1.6-21.6,0-32.4c0.1-0.9,0.3-1.7,0.4-2.6c0.9,6.9,0.1,13.8,0.5,20.7c0.8,5.5,2.8,10.8,5.8,15.4c6.7,10,17.5,16.5,28.8,20
	c20.2,6.2,41.4,8,62.4,9c4.9,0.9,9.9,0.2,14.9,0.8c7.9,1.1,15.8-0.1,23.7,0.8c7.3,0.9,14.7,0.4,22.1,0.5c7.1-0.1,14.3,0.3,21.4-0.4
	c13.6-1.2,27.4,0.5,41-1.2c4.5-0.2,9.1,0.3,13.5-0.5c10.8-0.6,21.5-1.9,32.1-3.8c15.2-2.8,31.4-6.6,42.9-17.6
	c6.6-5.8,11.8-13.5,13-22.3c0.9-7.6,1.5-15.3,1.9-23c5.4,0.5,10.2,3.6,15.6,4.2c9,1.2,18.4,1.1,27.3-1.6c6.1-1.7,12.9-3.7,16.5-9.4
	C388.2,207,388.5,200.7,388.8,194.7z"/>
<path id="Tracé_5" class="st2" d="M174,209.9L174,209.9L174,209.9z"/>
<path id="Tracé_6" class="st3" d="M65.3,70.4c4.3-1.5,8.9,0.6,12.4,3.1c8.6,6.3,15.2,15,20.9,23.9c0.8,1.5,1.3,3.1,1.5,4.8
	c-18.9,2.9-38.9,8-52.8,21.9c-1.1,1.1-2.1,2.3-3.2,3.4c-3.3-6.9-0.3-14.4,1.1-21.4c1.6-8.5,4.2-16.9,8.6-24.3
	C56.6,77.1,59.9,72.1,65.3,70.4z"/>
<path id="Tracé_7" class="st3" d="M241.6,78.4c4-3.7,8.5-7.8,14.2-8.4c5-0.5,9.2,3,12,6.7c6.5,8.9,10.3,19.5,12.1,30.3
	c1.1,6.8,4.2,13.8,1.2,20.5c-4.5-4.9-9.6-9.1-15.2-12.6c-9.6-5.8-20.5-9-31.5-10.6c-3.2-0.5-6.5-0.6-9.4-2.1
	c0.2-1.5,0.2-3.2,1.1-4.5C230.8,90.9,235.5,84,241.6,78.4z"/>
<path id="Tracé_8" class="st3" d="M84.2,151.6c13.4-7.4,31.9-3.8,41.1,8.6c3.5,4.7,5.3,10.5,5.1,16.3c-1.1,1.6-3,1.6-4.8,1.6
	c-0.8-1.3-1.3-2.6-1.6-4.1c-1.5-7.3-6.1-13.6-12.6-17.2c-7.7-4.1-17-3.9-24.6,0.5c-7.8,4.4-13.1,12.3-15.4,20.7
	c-0.4,1.1-0.6,2.6-1.7,3.3c-1.3,1-2.8-0.1-4.1-0.4c-0.2-1-1.1-1.9-0.6-3C67.3,167,74.2,156.8,84.2,151.6z"/>
<path id="Tracé_9" class="st3" d="M199.2,160.9c8.2-11.8,24.8-16.3,38-10.9c11.5,4.6,20.7,15,22.9,27.3c0.3,1.2-0.2,2.4-0.5,3.6
	c-1.7,0.8-4.2,1.5-5-0.8c-2.4-7.3-5.6-14.8-11.7-19.7c-5.9-4.8-13.4-7-20.9-6.2c-8.7,1-16.2,6.6-19.5,14.7c-1.4,2.9-1.4,6.3-2.8,9.3
	c-1.5-0.3-3.6,0.4-4.6-1.1C194.2,171.3,196.1,165.5,199.2,160.9z"/>
<path id="Tracé_10" class="st3" d="M154.2,175.7c1.7-0.7,3.5-0.3,5.2-0.3c3.7,0.3,7.4-0.1,11.1,0.2c2.4,1,3.4,3.8,2.4,6.2
	c-0.1,0.2-0.2,0.4-0.3,0.6c-1.7,2.5-4.5,4-5.9,6.6c-1.5,2.6-1.4,5.8,0.1,8.4c2.5,4.7,6.7,9.2,12.3,9.7c5,0.3,9.1-3,12.2-6.6
	c1.6-1.7,3.9,1,2.6,2.7c-3.6,6.9-12.8,9.4-19.9,6.8l-0.1,0c-2.8-1.1-5.3-3-7.2-5.4c-1.3-1.7-2-3.8-3.5-5.3c-1.8-0.4-2.5,1.7-3.4,2.8
	c-2.4,4-6,7.3-10.5,8.6c-6.7,1.9-14.1-1.4-18.1-7c-1.2-1.5,0-4.3,2.1-3.6c2,2.3,3.9,4.8,6.8,6c5.4,2.8,12.5,0.2,15.7-4.7
	c1.8-2.7,3.1-5.7,4-8.8c0.4-1.3-0.7-2.4-1.4-3.3c-1.9-2.5-4.7-4.4-6.2-7.2C151,179.8,152.3,177,154.2,175.7z"/>
<path id="Tracé_11" class="st3" d="M27,187.5c1.3-1.1,2.8-0.1,4.2,0.4c6,2.7,11.9,5.5,17.8,8.2c1.3,0.6,2.9,1.4,3.2,3
	c-0.3,1.3-1.6,2.3-2.9,1.4c-7.1-3.2-14.1-6.5-21.1-9.8c-1.1-0.4-1.8-1.6-1.4-2.7C26.8,187.8,26.9,187.6,27,187.5z"/>
<path id="Tracé_12" class="st3" d="M275.2,196.6c7-3.1,13.8-6.6,20.9-9.5c1.8-0.8,2.7,0.9,2.5,2.5c-8.3,4.1-16.7,8.2-25.1,12
	c-0.4-0.8-0.8-1.6-1.1-2.4C273,198.1,274,197.1,275.2,196.6z"/>
<path id="Tracé_13" class="st3" d="M374.3,193c1.1-0.1,2.4-0.4,3.2,0.6c3.4,3.8,5.1,9.8,2.4,14.5c-0.4,1.2-1.9,0.8-2.5-0.1
	c-3.2-4-4.6-9.1-3.9-14.1C373.7,193.6,374.1,193.2,374.3,193z"/>
<path id="Tracé_14" class="st3" d="M357.7,198.3c0.1-2.1,1.2-4.8,3.7-4.5c2.2,1.5,2.5,4.6,3.3,7c1.2,3.7,0.4,7.8-2.3,10.8
	C358.6,208.4,357.1,203.2,357.7,198.3z"/>
<path id="Tracé_15" class="st3" d="M326.7,201.6c0.5-2.2,0.9-5.1,3.3-6c2-0.2,2.9,1.8,3,3.4c0.4,4.8,0.2,10-2.7,14.1
	C327.8,209.9,325.8,205.9,326.7,201.6z"/>
<path id="Tracé_16" class="st3" d="M343.5,196.7c1.6-0.1,3.8,0.3,3.8,2.4c0.1,4.9,1.5,10.7-1.8,14.8
	C341,209.5,340.7,202,343.5,196.7z"/>
<path id="Tracé_17" class="st3" d="M17.4,221.6c10.4-1.8,20.6-4.8,31.2-4.4c-2.2,3.3-6.3,4.2-10,4.3c-6.5,1.3-13,2.9-19.7,3.2
	C17.2,224.7,17.4,222.8,17.4,221.6z"/>
<path id="Tracé_18" class="st3" d="M278,218.3c9.5-1.2,19,1.4,28.3,3c1.6-0.1,2.1,1.9,1.2,2.9c-1.3,0.9-3,0.2-4.4,0.1
	C294.7,222.5,285.8,222.1,278,218.3z"/>
<path id="Tracé_19" class="st3" d="M275.5,233.2c0.3-2.2,3.5-2.3,4.6-0.8c5.7,6.5,14.1,10.3,18.4,17.9c-8.5-2.1-13.6-9.8-20.9-13.9
	C276.6,235.7,275.1,234.8,275.5,233.2z"/>
<path id="Tracé_20" class="st3" d="M45.1,234c1.7-1.1,3.7-1.7,5.7-1.8c-7.5,7.5-15.6,14.7-24.9,19.7c0.7-1.6,1.7-3,2.8-4.4
	C33.4,242.2,38.9,237.6,45.1,234z"/>
<path id="Tracé_21" class="st3" d="M12.9,285.4c0.3,0.2,1,0.6,1.3,0.8c3,2.3,5.7,4.8,8.9,6.8c11.6,7.6,25.2,11.3,38.7,13.4
	c42,6,84.5,5.3,126.7,4.9c27.4-1.2,55.2,0.2,82.1-6.3c13-3.2,26.3-7.3,36.8-16.1c1.5-1.3,3.3-2.1,5.3-2.4c0.4,1.4,0.7,2.8,0.9,4.3
	c0.4,9.5-0.2,18.9-0.2,28.4c0.2,3.5-0.9,7-2.9,9.9c-9.9,8.6-22.6,13-35,16.6c-16.9,4.8-34.5,6.3-51.8,9.2
	c-5.1,0.8-10.8,1.4-15.4-1.6c-5-3.1-7-8.9-10.6-13.1c-6.8-8.2-16.6-13.4-27.2-14.6c-11.5-1.4-23.7,0.4-33.5,6.6
	c-7.6,4.7-13.4,11.8-17.6,19.5c-1,1.9-2.4,4.1-4.9,3.9c-26.5-1.2-52.7-6.4-78.2-13.4c-6.8-3.6-14-6.6-19.8-11.8
	c-3.9-3.3-4.8-8.7-4.8-13.5C11.9,306.4,10.6,295.7,12.9,285.4z"/>
<path id="Tracé_22" class="st3" d="M159,337.9c4.7-1.4,9.7,0,13.1,3.5c3.1,3.3,5.7,7.9,4.8,12.6c-0.7,3.7-4.1,6-6.8,8.2
	c-3.3,2.6-8,3.8-12,1.9c-4-2-7.8-5.2-9.5-9.4C146.2,347.4,152.2,339.8,159,337.9z"/>
</svg>
